<svg width="89" height="61" viewBox="0 0 89 61" fill="none" xmlns="http://www.w3.org/2000/svg">
<path fill-rule="evenodd" clip-rule="evenodd" d="M52.1508 0L43 9.3435V0H30.0563C13.4567 0 0 13.4567 0 30.0563C0 46.656 13.4567 60.1127 30.0563 60.1127C40.2828 60.1127 49.3164 55.0054 54.7456 47.2023L88.9995 0H52.1508ZM30.0694 44.7788C23.2032 44.7788 17.3316 40.5201 14.9521 34.5H31L42 22H15.1855C17.6997 16.2772 23.4178 12.2806 30.0694 12.2806H63.4947L42.8857 38.5196C39.912 42.3293 35.2767 44.7788 30.0694 44.7788ZM63 44.634H88.5003V8L63 44.634Z" fill="white"/>
</svg>
