<svg width="15" height="15" viewBox="0 0 15 15" fill="none" xmlns="http://www.w3.org/2000/svg">
<path d="M11.8003 4.70865L12.0564 4.45258L12.0564 4.81471L12.0564 9.68491C12.0564 9.98806 12.1587 10.2288 12.3615 10.4193C12.5691 10.6143 12.8149 10.7178 13.1058 10.7311C13.4091 10.7304 13.6629 10.6302 13.8756 10.4301C14.0866 10.2315 14.1915 9.98663 14.1915 9.68491L14.1915 1.86696C14.1915 1.5623 14.0915 1.31648 13.8937 1.11861C13.6958 0.920732 13.45 0.820774 13.1453 0.820774L5.32735 0.820774C5.02563 0.820773 4.78078 0.92568 4.58216 1.13671C4.38203 1.34935 4.28188 1.60312 4.28117 1.90642C4.2945 2.19732 4.39798 2.44319 4.59294 2.65072C4.78346 2.85353 5.0242 2.95587 5.32735 2.95587H10.1976L10.5597 2.95587L10.3036 3.21194L0.776828 12.7387C0.561453 12.9541 0.457633 13.2013 0.457632 13.4871C0.457632 13.7729 0.561453 14.0201 0.776827 14.2354C0.992202 14.4508 1.2394 14.5546 1.52518 14.5546C1.81096 14.5546 2.05816 14.4508 2.27354 14.2354L11.8003 4.70865Z" fill="black" stroke="#EFEDE9" stroke-width="0.3"/>
</svg>
