<svg width="15" height="15" viewBox="0 0 15 15" fill="none" xmlns="http://www.w3.org/2000/svg">
<path d="M11.7997 4.7084L12.0558 4.45233V4.81446V9.68466C12.0558 9.98781 12.0558 10.7242 12.0558 10.7242C12.0558 10.7242 12.8143 10.7176 13.1052 10.7309C13.4085 10.7302 14.1693 10.7242 14.1693 10.7242C14.1693 10.7242 14.1909 9.98638 14.1909 9.68466V1.86671C14.1909 1.56205 14.1909 1.13667 14.1909 0.820402C13.9329 0.820144 13.4494 0.820526 13.1447 0.820526H5.32675C5.02503 0.820525 4.28057 0.820341 4.28057 0.820341C4.28057 0.820341 4.28128 1.60287 4.28057 1.90617C4.2939 2.19707 4.28057 2.95562 4.28057 2.95562C4.28057 2.95562 5.0236 2.95562 5.32675 2.95562H10.197H10.5591L10.303 3.21169L0.776227 12.7385C0.560852 12.9539 0.457032 13.2011 0.457031 13.4869C0.457031 13.7727 0.560852 14.0199 0.776226 14.2352C0.991601 14.4506 1.2388 14.5544 1.52458 14.5544C1.81036 14.5544 2.05756 14.4506 2.27294 14.2352L11.7997 4.7084Z" fill="black"/>
</svg>
